<?xml version="1.0" encoding="utf-8"?>
<!-- Svg Vector Icons : http://www.onlinewebfonts.com/icon -->
<!DOCTYPE svg PUBLIC "-//W3C//DTD SVG 1.1//EN" "http://www.w3.org/Graphics/SVG/1.1/DTD/svg11.dtd">
<svg version="1.1" xmlns="http://www.w3.org/2000/svg" xmlns:xlink="http://www.w3.org/1999/xlink" x="0px" y="0px" viewBox="0 0 1000 1000" enable-background="new 0 0 1000 1000" xml:space="preserve">
<metadata> Svg Vector Icons : http://www.onlinewebfonts.com/icon </metadata>
<g><g transform="translate(0.000000,511.000000) scale(0.100000,-0.100000)"><path d="M161.2,3772.8L100,3714V698v-3015.9l61.2-58.8L220-2438h1313.2H2844v-526.8c0-529.2,0-529.2,61.3-588c31.8-34.3,88.2-61.3,122.5-61.3c41.7,0,426.3,215.6,1046.2,588l977.5,588h2364.2h2364.3l58.8,61.3l61.3,58.8V698v3016l-61.3,58.8l-58.8,61.3H5000H220L161.2,3772.8z M9508,698v-2744H7227.1h-2281l-855-514.5l-855-512.1v453.3c0,448.4,0,453.3-61.3,512.1L3116-2046H1802.7H492V698v2744h4508h4508V698z"/><path d="M1729.2,2204.8c-39.2-36.7-61.3-88.2-61.3-134.7s22.1-98,61.3-134.8l58.8-61.3h3212h3211.9l58.8,61.3c80.8,78.4,80.8,191.1,0,269.5l-58.8,61.3H5000H1788L1729.2,2204.8z"/><path d="M1729.2,1028.8C1690,992,1668,940.6,1668,894s22.1-98,61.3-134.8L1788,698h3212h3211.9l58.8,61.3c80.8,78.4,80.8,191.1,0,269.5l-58.8,61.3H5000H1788L1729.2,1028.8z"/><path d="M1729.2-147.2C1690-184,1668-235.4,1668-282s22.1-98,61.3-134.7L1788-478h1644h1643.9l58.8,61.3c80.8,78.4,80.8,191.1,0,269.5L5075.9-86H3432H1788L1729.2-147.2z"/></g></g>
</svg>