<?xml version="1.0" encoding="utf-8"?>
<!-- Svg Vector Icons : http://www.onlinewebfonts.com/icon -->
<!DOCTYPE svg PUBLIC "-//W3C//DTD SVG 1.1//EN" "http://www.w3.org/Graphics/SVG/1.1/DTD/svg11.dtd">
<svg version="1.1" xmlns="http://www.w3.org/2000/svg" xmlns:xlink="http://www.w3.org/1999/xlink" x="0px" y="0px" viewBox="0 0 1000 1000" enable-background="new 0 0 1000 1000" xml:space="preserve">
<metadata> Svg Vector Icons : http://www.onlinewebfonts.com/icon </metadata>
<g><path d="M665.9,541.7c76-52.8,126-140.6,126-239.9C791.9,140.9,660.9,10,500.1,10c-160.9,0-291.8,130.9-291.8,291.8c0,99.3,49.9,187.1,126,239.9c-159.9,65.5-273,222.7-273,405.9c0,23.5,19,42.4,42.4,42.4c23.5,0,42.3-18.9,42.3-42.4c0-195.1,158.8-353.8,354-353.8c195.2,0,353.8,158.8,353.8,353.8c0,23.5,19,42.4,42.5,42.4c23.4,0,42.4-18.9,42.4-42.4C938.8,764.4,825.8,607.2,665.9,541.7z M293.1,301.8c0-114.2,92.8-207,207-207c114.1,0,207,92.8,207,207c0,114.3-92.9,207-207,207C385.9,508.9,293.1,416,293.1,301.8z"/></g>
</svg>