<?xml version="1.0" encoding="utf-8"?>
<!-- Svg Vector Icons : http://www.onlinewebfonts.com/icon -->
<!DOCTYPE svg PUBLIC "-//W3C//DTD SVG 1.1//EN" "http://www.w3.org/Graphics/SVG/1.1/DTD/svg11.dtd">
<svg version="1.1" xmlns="http://www.w3.org/2000/svg" xmlns:xlink="http://www.w3.org/1999/xlink" x="0px" y="0px" viewBox="0 0 1000 1000" enable-background="new 0 0 1000 1000" xml:space="preserve">
<metadata> Svg Vector Icons : http://www.onlinewebfonts.com/icon </metadata>
<g><g transform="translate(0.000000,511.000000) scale(0.100000,-0.100000)"><path d="M2540.9,4791.2c-199.8-63.3-249.3-106.8-1279.9-1135.5C299.5,2696.3,234.2,2625,172.9,2494.5L107.6,2356L101.7-1017c-4-3339.3-4-3372.9,35.6-3438.2c21.8-35.6,67.3-81.1,102.9-102.9c65.3-39.6,106.8-39.6,3467.9-39.6c3361.1,0,3402.6,0,3467.9,39.6c35.6,21.8,81.1,67.3,102.9,102.9c37.6,63.3,39.6,102.9,39.6,1157.3v1090l-395.6-269l-395.7-271v-282.9c0-316.5-15.8-379.8-118.7-464.9l-63.3-53.4l-2646.9,4l-2648.9,5.9l-59.4,57.4c-33.6,33.6-71.2,91-81.1,128.6c-27.7,96.9-27.7,5327.5,0,5424.4c9.9,37.6,47.5,95,81.1,128.6l59.4,57.4l660.7,9.9c900.1,13.9,840.8-41.5,840.8,767.6c0,597.4,4,623.1,124.6,696.3c61.3,37.6,112.8,39.6,1867.5,39.6h1802.2l61.3-51.4c35.6-27.7,73.2-71.2,87-95c17.8-31.7,25.7-540.1,33.6-2172.1l9.9-2128.6L6883.2-380c189.9,164.2,366,312.6,391.7,332.3l43.5,35.6v2310.6c0,2273,0,2314.6-39.6,2377.9c-21.8,35.6-67.3,81.1-102.9,102.9c-63.3,39.6-102.9,39.6-2310.6,37.6C3108.6,4816.9,2602.2,4811,2540.9,4791.2z"/><path d="M3686.3,3216.5c-21.8-7.9-65.3-43.5-93-79.1l-53.4-63.3V1997.9V921.8l67.3-75.2l67.3-73.2l937.7-5.9c912-4,937.7-4,1001,35.6c122.7,75.2,122.7,71.2,122.7,1196.8s0,1121.7-122.7,1196.8c-63.3,37.6-96.9,39.6-975.3,37.6C4137.3,3234.3,3710,3226.4,3686.3,3216.5z M4861.4,2993c344.2-225.5,186-771.5-223.5-771.5c-451,2-587.5,605.3-178,801.2C4574.5,3076.1,4754.5,3064.2,4861.4,2993z M4481.5,2051.3l152.3-178l150.4,178l150.4,178l122.7-5.9c138.5-7.9,215.6-51.4,261.1-146.4c29.7-61.3,29.7-61.3-87-739.9c-45.5-263.1-53.4-290.8-108.8-340.3l-59.4-55.4h-417.4c-457,0-508.4,9.9-548,112.8c-11.9,29.7-57.4,255.2-100.9,500.5c-77.1,441.1-77.1,445.1-43.5,526.2c43.5,98.9,130.6,144.4,273,146.4h102.9L4481.5,2051.3z"/><path d="M9247.2,993c-178-57.4-672.6-360-854.6-520.3l-63.3-55.4l354.1-445.1c195.9-245.3,367.9-453,383.8-462.9c59.4-39.6,658.8,534.1,775.5,743.8c51.4,93,57.4,124.6,57.4,273c0,142.4-7.9,182-47.5,251.2c-49.5,85.1-144.4,164.2-243.3,201.8C9516.2,1014.7,9330.3,1020.7,9247.2,993z"/><path d="M7716-57.5c-874.4-706.2-1410.5-1179-1952.5-1719.1c-587.5-589.5-834.8-912-854.6-1119.7c-7.9-85.1-2-102.9,45.5-150.3c49.5-49.5,61.3-51.4,176.1-43.5c472.8,39.6,1802.2,874.4,3438.2,2166.2l312.6,245.3l-114.7,146.4c-488.6,623.1-629.1,799.2-637,799.2C8123.5,266.9,7937.6,122.5,7716-57.5z"/><path d="M1868.3,181.9c-231.5-100.9-237.4-427.3-9.9-540.1l87-45.5H3708c1673.6,0,1764.6,2,1841.8,37.6c116.7,53.4,176.1,144.4,176.1,273c0,110.8-35.6,178-136.5,251.3c-53.4,41.5-71.2,41.5-1857.6,45.5C2261.9,207.6,1915.7,203.6,1868.3,181.9z"/><path d="M9464.8-389.8c-555.9-423.3-1614.2-1277.9-1624.1-1311.6c-23.7-89,112.7-253.2,201.8-241.3c25.7,4,377.9,269,783.4,589.5c1036.6,821,971.3,763.6,957.5,836.8c-13.8,69.2-112.7,182-172.1,197.8C9585.4-312.7,9534-336.4,9464.8-389.8z"/><path d="M1868.3-1015c-69.2-29.7-148.4-122.7-168.1-201.8c-23.7-87.1-11.9-158.3,41.5-247.3c81.1-132.5-19.8-126.6,1976.3-126.6h1806.2l69.2,43.5c71.2,43.5,142.4,168.1,142.4,253.2c0,85.1-71.2,209.7-142.4,253.2l-69.2,43.5l-1808.1-2C2720.9-999.1,1890-1007.1,1868.3-1015z"/><path d="M1888-2213.8c-255.2-91-265.1-433.2-15.8-561.8c29.7-15.8,324.4-21.7,975.3-21.7c894.2,0,933.7,2,1008.9,39.6c104.8,53.4,166.2,172.1,152.3,292.8c-11.9,102.9-61.3,176.1-154.3,231.5c-65.3,37.6-106.8,39.6-977.3,43.5C2127.4-2186.1,1953.3-2190.1,1888-2213.8z"/></g></g>
</svg>